<?xml version="1.0" encoding="UTF-8" standalone="no"?>
<!DOCTYPE svg PUBLIC "-//W3C//DTD SVG 20010904//EN"
              "http://www.w3.org/TR/2001/REC-SVG-20010904/DTD/svg10.dtd">

<svg xmlns="http://www.w3.org/2000/svg"
     width="0.177778in" height="0.177778in"
     viewBox="0 0 16 16">
  <path id="Imported Path"
        fill="none" stroke="black" stroke-width="1"
        d="M 0.00,0.00
           C 0.00,0.00 0.00,7.00 0.00,7.00
             0.00,7.00 7.00,7.00 7.00,7.00
             7.00,7.00 7.00,0.00 7.00,0.00
             7.00,0.00 0.00,0.00 0.00,0.00 Z
           M 6.00,5.96
           C 6.00,5.96 6.00,6.00 6.00,6.00
             6.00,6.00 3.58,6.00 3.58,6.00
             3.82,5.56 4.10,4.99 4.42,4.21
             4.97,5.05 5.44,5.79 5.77,5.79
             5.77,5.79 6.00,5.96 6.00,5.96 Z
           M 2.98,1.17
           C 4.22,2.25 4.51,2.04 5.35,2.04
             3.51,4.47 3.07,5.20 2.75,6.00
             2.75,6.00 0.99,6.00 0.99,6.00
             0.99,6.00 0.99,3.11 0.99,3.11
             2.24,2.68 2.72,1.72 2.98,1.17
             2.98,1.17 2.98,1.17 2.98,1.17 Z
           M 15.99,0.00
           C 15.99,0.00 9.00,0.00 9.00,0.00
             9.00,0.00 9.00,7.00 9.00,7.00
             9.00,7.00 16.00,7.00 16.00,7.00
             16.00,7.00 16.00,0.00 16.00,0.00
             16.00,0.00 15.99,0.00 15.99,0.00 Z
           M 13.13,6.00
           C 13.14,5.86 12.81,5.58 12.60,4.67
             11.42,4.38 12.19,4.35 12.10,4.55
             12.67,4.06 11.79,4.01 12.07,3.66
             11.78,3.52 12.66,3.49 12.66,3.49
             12.66,3.49 12.66,6.42 12.66,6.42
             12.66,6.42 10.79,6.42 10.79,6.42
             10.79,6.42 13.13,6.00 13.13,6.00 Z
           M 12.66,2.72
           C 12.21,1.68 10.99,2.37 12.01,2.62
             13.27,2.58 11.94,2.51 11.94,2.51
             11.99,2.30 12.02,2.08 12.02,1.86
             12.02,1.16 11.78,0.51 11.38,0.00
             10.31,-0.82 12.87,-0.82 13.03,-0.10
             12.77,-0.64 12.87,-0.64 12.87,-0.64
             12.87,-0.64 11.84,-0.64 11.84,-0.64
             11.80,-0.94 11.48,-1.09 11.43,-2.34
             10.66,-4.52 11.48,-4.52 11.48,-4.52
             11.54,-4.54 11.60,-4.56 11.67,-4.57
             13.02,-4.63 13.35,-5.82 13.46,-6.47
             12.85,-6.89 14.09,-6.98 14.09,-6.98
             14.09,-6.98 15.86,-6.98 15.86,-6.98
             15.86,-6.98 15.86,-5.68 15.86,-5.68
             15.86,-5.68 12.66,2.72 12.66,2.72 Z
           M 16.86,1.02
           C 16.86,1.02 9.00,1.02 9.00,1.02
             9.00,1.02 9.00,8.02 9.00,8.02
             9.00,8.02 16.00,8.02 16.00,8.02
             16.00,8.02 16.00,9.00 16.00,9.00
             16.00,9.00 16.86,1.02 16.86,1.02 Z
           M 10.95,13.32
           C 10.95,13.32 11.80,15.00 11.80,15.00
             11.80,15.00 9.99,15.00 9.99,15.00
             9.99,15.00 9.99,10.00 9.99,10.00
             9.99,10.00 10.16,10.00 10.16,10.00
             10.16,10.00 12.35,11.33 12.35,11.33
             12.35,11.33 11.00,12.90 11.00,12.90
             11.00,12.90 -6.98,-4.57 -6.98,-4.57
             -6.98,-4.57 10.95,13.32 10.95,13.32 Z
           M 11.62,10.00
           C 11.62,10.00 15.00,10.00 15.00,10.00
             15.00,10.00 15.00,12.06 15.00,12.06
             15.00,12.06 11.62,10.00 11.62,10.00 Z
           M 0.00,9.00
           C 0.00,9.00 0.00,16.00 0.00,16.00
             0.00,16.00 7.00,16.00 7.00,16.00
             7.00,16.00 7.00,9.00 7.00,9.00
             7.00,9.00 0.00,9.00 0.00,9.00 Z
           M 5.86,10.55
           C 5.72,10.91 5.40,11.18 5.01,11.24
             4.30,10.32 5.52,10.20 5.94,10.49
             5.70,9.04 5.82,8.20 5.37,11.06
             4.68,12.56 5.08,13.84 5.08,13.84
             5.08,13.84 4.25,13.84 4.25,13.84
             4.25,13.84 4.25,10.00 4.25,10.00
             4.25,10.00 9.25,10.00 9.25,10.00
             9.25,10.00 9.25,10.06 9.25,10.06
             8.81,9.46 8.62,9.46 8.62,9.46
             8.62,9.46 5.86,10.55 5.86,10.55 Z" />
</svg>
